<svg width="139" height="139" viewBox="0 0 139 139" fill="none" xmlns="http://www.w3.org/2000/svg">
<path d="M97.3005 13.9004V21.6566C88.8591 16.7373 79.2705 14.1292 69.5005 14.095C62.2059 13.9849 54.9654 15.3629 48.2211 18.1447C41.4769 20.9265 35.3704 25.0538 30.2747 30.2746C25.0041 35.3427 20.8311 41.4396 18.0144 48.1872C15.1978 54.9348 13.7975 62.1892 13.9005 69.5004C13.7917 76.8172 15.1809 84.0789 17.9824 90.839C20.784 97.5991 24.9388 103.715 30.1913 108.81C35.2792 114.071 41.3935 118.232 48.1552 121.035C54.9169 123.837 62.182 125.221 69.5005 125.1C79.7564 125.095 89.8041 122.204 98.4959 116.76C99.6265 119.18 101.395 121.247 103.611 122.737C105.827 124.308 108.484 125.135 111.2 125.1H125.1V13.9004H97.3005ZM79.425 53.015C79.4757 52.0015 79.7383 51.0099 80.196 50.1042C80.6537 49.1986 81.2963 48.399 82.0823 47.7571C82.8682 47.1152 83.7801 46.6454 84.7589 46.3778C85.7378 46.1103 86.7619 46.0511 87.7651 46.204C89.8188 46.8924 91.552 48.3044 92.6415 50.1765C93.731 52.0486 94.1024 54.2531 93.6865 56.3788C93.6401 57.3938 93.3803 58.3876 92.9239 59.2954C92.4675 60.2032 91.8249 61.0046 91.0379 61.6473C90.251 62.29 89.3373 62.7596 88.3566 63.0254C87.376 63.2911 86.3503 63.3472 85.3465 63.1898C83.2927 62.5013 81.5595 61.0894 80.47 59.2173C79.3805 57.3452 79.0091 55.1407 79.425 53.015ZM63.4123 37.1968C64.3416 36.6604 65.3734 36.3256 66.4407 36.2143C67.5079 36.1029 68.5866 36.2175 69.6067 36.5505C70.6267 36.8835 71.5653 37.4275 72.3612 38.1472C73.1571 38.8668 73.7927 39.7459 74.2265 40.7274C75.443 42.657 75.9138 44.9643 75.5504 47.2163C75.187 49.4683 74.0144 51.5103 72.2527 52.9594C71.3233 53.4958 70.2915 53.8306 69.2242 53.9419C68.157 54.0533 67.0783 53.9387 66.0582 53.6057C65.0382 53.2727 64.0997 52.7286 63.3037 52.009C62.5078 51.2894 61.8722 50.4102 61.4385 49.4288C60.2219 47.4991 59.7511 45.1919 60.1145 42.9399C60.4779 40.6879 61.6505 38.6458 63.4123 37.1968ZM45.3144 45.0642C46.2427 44.5233 47.2749 44.185 48.3433 44.0713C49.4116 43.9576 50.4919 44.0712 51.5132 44.4047C52.5345 44.7381 53.4737 45.2838 54.2692 46.006C55.0646 46.7281 55.6983 47.6104 56.1287 48.5948C57.3452 50.5244 57.816 52.8317 57.4526 55.0837C57.0892 57.3357 55.9166 59.3777 54.1549 60.8268C53.2248 61.3668 52.191 61.7038 51.1213 61.8156C50.0517 61.9273 48.9705 61.8113 47.949 61.4752C46.9274 61.139 45.9886 60.5904 45.1943 59.8653C44.4 59.1402 43.7683 58.2552 43.3407 57.2684C42.126 55.343 41.6562 53.0403 42.0197 50.793C42.3831 48.5457 43.5548 46.5085 45.3144 45.0642ZM50.1794 78.4242C49.6088 79.2688 48.8666 79.9837 48.0012 80.5222C47.1358 81.0608 46.1666 81.411 45.1569 81.5501C44.1471 81.6891 43.1193 81.6138 42.1406 81.329C41.1619 81.0443 40.2541 80.5566 39.4764 79.8976C37.659 78.743 36.3203 76.9702 35.7072 74.9061C35.0941 72.8421 35.248 70.6259 36.1405 68.6664C36.7111 67.8218 37.4533 67.1069 38.3187 66.5683C39.1841 66.0297 40.1533 65.6795 41.1631 65.5405C42.1728 65.4015 43.2006 65.4768 44.1793 65.7615C45.158 66.0463 46.0658 66.534 46.8435 67.193C48.6676 68.3485 50.0109 70.1261 50.6243 72.1965C51.2377 74.2668 51.0797 76.4893 50.1794 78.452V78.4242ZM93.6031 87.5704C88.7103 91.3234 81.5379 86.9866 75.5887 89.5164C69.5005 91.7404 67.2765 100.08 61.1605 100.664C55.0445 101.248 50.3463 94.6872 55.9341 82.5942C59.7149 74.2542 58.7141 67.3876 65.4417 64.4686C72.1693 61.5496 76.4227 67.6378 84.9017 70.946C97.3005 75.7832 98.4958 83.8174 93.6031 87.5704Z" fill="#3772FF"/>
</svg>
