<svg width="143" height="35" viewBox="0 0 143 35" fill="none" xmlns="http://www.w3.org/2000/svg">
<path d="M45.0586 0H48.1097V25.7437C48.1133 26.1203 48.0427 26.4938 47.902 26.8419C47.7612 27.1899 47.5533 27.5054 47.2907 27.7694C47.0399 28.0434 46.7362 28.261 46.3988 28.4084C46.0614 28.5558 45.6976 28.6298 45.3308 28.6258H42.5492V26.988C40.8589 28.0313 38.9236 28.5862 36.9494 28.5937C35.4811 28.6157 34.024 28.3297 32.668 27.7535C31.312 27.1773 30.0858 26.3229 29.0652 25.2432C28.0254 24.1839 27.2006 22.9248 26.6384 21.5382C26.0761 20.1517 25.7875 18.6652 25.7891 17.1642C25.7898 15.6664 26.079 14.1833 26.6403 12.7998C27.2016 11.4163 28.0239 10.1594 29.0603 9.10099C30.0967 8.04258 31.3269 7.20337 32.6805 6.63129C34.0342 6.05922 35.4847 5.76549 36.9494 5.7669C38.9178 5.77046 40.8501 6.30788 42.5492 7.32437V2.56901C42.5492 1.88813 42.8135 1.2351 43.284 0.753392C43.7545 0.271685 44.3928 0.000709252 45.0586 0ZM42.5492 17.3355V16.9849C42.5306 15.9998 42.2541 15.0378 41.7485 14.1992C41.2525 13.3673 40.5584 12.6777 39.731 12.1948C38.8779 11.7057 37.9158 11.4503 36.9378 11.4536C35.9599 11.4569 34.9994 11.7187 34.1495 12.2135C33.3043 12.7153 32.6017 13.4338 32.1111 14.2982C31.4886 15.3876 31.2369 16.6573 31.3955 17.9086C31.5542 19.1599 32.1141 20.3221 32.9877 21.2131C34.0236 22.287 35.4342 22.8962 36.9092 22.9068C38.3843 22.9173 39.803 22.3283 40.8535 21.2693C41.3756 20.7601 41.7941 20.1505 42.0851 19.4754C42.3761 18.8003 42.5338 18.0731 42.5492 17.3355Z" fill="#3772FF"/>
<path d="M53.7382 9.11728C55.8342 6.9755 58.6748 5.77062 61.6377 5.76661C64.6007 5.7626 67.4444 6.95977 69.5459 9.09587C70.6061 10.1377 71.4457 11.3912 72.0124 12.7787C72.5791 14.1662 72.8609 15.658 72.8403 17.1615C72.8628 18.666 72.5837 20.1592 72.0203 21.5492C71.4568 22.9391 70.6209 24.1963 69.5642 25.2432C68.5265 26.3052 67.2944 27.1477 65.9382 27.7225C64.582 28.2973 63.1284 28.5931 61.6604 28.5931C60.1923 28.5931 58.7387 28.2973 57.3825 27.7225C56.0263 27.1477 54.7942 26.3052 53.7565 25.2432C52.6993 24.1967 51.8631 22.9396 51.2996 21.5495C50.7361 20.1595 50.4573 18.6661 50.4804 17.1615C50.4528 15.6636 50.7279 14.1759 51.2885 12.7917C51.849 11.4075 52.683 10.1566 53.7382 9.11728ZM57.6973 21.2318C58.2142 21.7641 58.8293 22.1862 59.5068 22.4737C60.1844 22.7612 60.911 22.9083 61.6446 22.9066C62.3781 22.9048 63.104 22.7542 63.7803 22.4635C64.4565 22.1728 65.0697 21.7478 65.5841 21.2131C66.1113 20.6864 66.5283 20.0557 66.8099 19.3592C67.0914 18.6628 67.2317 17.9151 67.2222 17.1615C67.1906 15.6694 66.5888 14.2493 65.5458 13.2054C64.5027 12.1616 63.1014 11.5771 61.642 11.5771C60.1827 11.5771 58.7813 12.1616 57.7383 13.2054C56.6953 14.2493 56.0935 15.6694 56.0619 17.1615C56.0541 17.9183 56.1958 18.669 56.4787 19.3684C56.7615 20.0679 57.1796 20.7017 57.7078 21.2318H57.6973Z" fill="#3772FF"/>
<path d="M97.4768 14.8439C97.8338 16.5636 97.7881 18.3453 97.3433 20.0435C96.9388 21.6634 96.1911 23.1726 95.1531 24.4643C94.1145 25.73 92.8224 26.753 91.3641 27.4642C89.7276 28.2786 87.9183 28.6623 86.1001 28.5805C84.2819 28.4987 82.5124 27.954 80.9522 26.9959V31.4756C80.9564 31.8523 80.886 32.226 80.7453 32.5741C80.6045 32.9223 80.3963 33.2377 80.1331 33.5014C79.8767 33.779 79.5665 33.9988 79.2222 34.1467C78.878 34.2946 78.5073 34.3674 78.134 34.3604H75.3838V5.72656H80.9522V7.3322C82.2916 6.49506 83.7951 5.97036 85.3556 5.79552C86.916 5.62067 88.4949 5.79997 89.9799 6.32065C91.8655 6.93019 93.5564 8.04666 94.8757 9.55332C96.2066 11.0354 97.1073 12.8675 97.4768 14.8439ZM82.5824 21.2316C83.3686 22.0293 84.3681 22.5712 85.4549 22.7889C86.5417 23.0067 87.6672 22.8907 88.6896 22.4554C89.7121 22.0202 90.5856 21.2852 91.2003 20.3431C91.815 19.401 92.1433 18.2939 92.1439 17.1614C92.1439 15.6425 91.5539 14.1859 90.5038 13.1119C89.4536 12.0379 88.0293 11.4346 86.5441 11.4346C85.059 11.4346 83.6346 12.0379 82.5845 13.1119C81.5343 14.1859 80.9443 15.6425 80.9443 17.1614C80.9355 17.9176 81.076 18.6679 81.3575 19.3673C81.639 20.0667 82.0556 20.7008 82.5824 21.2316Z" fill="#3772FF"/>
<path d="M137.016 20.1803H142.54C142.552 21.6895 142.171 23.1749 141.435 24.4834C140.713 25.7804 139.66 26.8517 138.387 27.5823C137.113 28.3287 135.669 28.7182 134.2 28.7116C133.254 28.7152 132.314 28.5569 131.419 28.2433C129.788 27.6564 128.375 26.5648 127.379 25.1199C126.382 23.6751 125.849 21.9487 125.856 20.1803V0.109897H128.598C129.094 0.107415 129.581 0.242434 130.008 0.500601C130.433 0.755362 130.788 1.11748 131.037 1.55229C131.288 1.99011 131.419 2.48947 131.416 2.99736V5.92229H142.54V11.5607H131.416V20.7637C131.557 21.466 131.947 22.0899 132.512 22.5144C133.077 22.9389 133.776 23.1336 134.474 23.061C135.171 22.9883 135.817 22.6534 136.287 22.1212C136.757 21.5889 137.016 20.8973 137.016 20.1803Z" fill="#3772FF"/>
<path d="M16.7615 5.72656V7.3322C15.0626 6.31536 13.1302 5.7779 11.1618 5.77473C9.69587 5.75111 8.24066 6.03343 6.88507 6.60444C5.52947 7.17544 4.30197 8.02314 3.27757 9.09572C2.21975 10.1384 1.38301 11.3926 0.819405 12.7801C0.255796 14.1677 -0.0226321 15.659 0.00143749 17.1614C-0.0216748 18.6659 0.257126 20.1593 0.820614 21.5494C1.3841 22.9394 2.22031 24.1965 3.27757 25.243C4.29801 26.323 5.52413 27.1775 6.88019 27.7537C8.23625 28.33 9.69345 28.6158 11.1618 28.5935C13.2228 28.5927 15.2422 27.9992 16.9892 26.8808C17.2205 27.3748 17.5752 27.7976 18.0176 28.1064C18.464 28.4275 18.9974 28.5978 19.5431 28.5935H22.3378V5.72656H16.7615ZM13.1609 13.7735C13.297 12.8074 14.0506 12.1678 14.8435 12.3712C15.6364 12.5746 16.1675 13.4952 16.0315 14.4585C15.8954 15.4219 15.1418 16.0642 14.3489 15.8608C13.5561 15.6574 13.0249 14.7368 13.1609 13.7735ZM9.93975 10.5167C10.6515 10.0243 11.6249 10.3508 12.1142 11.2446C12.6036 12.1384 12.4256 13.2677 11.7139 13.7601C11.0021 14.2525 10.0313 13.9287 9.54201 13.0322C9.05268 12.1357 9.23062 11.0252 9.93975 10.5167ZM6.29989 12.1223C7.01164 11.6299 7.98506 11.9537 8.47438 12.8502C8.96371 13.7467 8.78578 14.8733 8.07403 15.3657C7.36228 15.8581 6.39147 15.5343 5.90215 14.6378C5.41282 13.7414 5.59076 12.6308 6.29989 12.133V12.1223ZM7.27593 18.9918C6.87033 19.7143 5.90738 19.8481 5.12498 19.2915C4.34258 18.7349 4.03904 17.6859 4.44463 16.9767C4.85022 16.2675 5.81318 16.1204 6.59558 16.677C7.37798 17.2336 7.68413 18.2799 7.27593 19.0025V18.9918ZM16.0105 20.865C15.0267 21.6357 13.5822 20.7473 12.389 21.2664C11.1801 21.7401 10.7405 23.4073 9.51061 23.5491C8.28075 23.6909 7.33873 22.3235 8.46392 19.8347C9.1966 18.1595 8.99249 16.7252 10.3453 16.1257C11.7244 15.5905 12.5539 16.776 14.2521 17.4637C16.7458 18.4539 16.9944 20.1077 16.0105 20.8757V20.865Z" fill="#3772FF"/>
<path d="M116.409 20.3514C115.841 21.3458 114.981 22.1322 113.952 22.5993C112.926 23.0817 111.778 23.2267 110.668 23.0141C109.584 22.8215 108.577 22.3111 107.771 21.5449L122.443 14.8254L122.271 14.0493C122.251 13.9051 122.217 13.7634 122.169 13.6265C122.08 13.3 121.968 12.9807 121.834 12.6711C121.382 11.6173 120.763 10.6471 120.002 9.79973C118.468 7.95219 116.376 6.68005 114.057 6.18438C111.72 5.63815 109.272 5.89686 107.094 6.92029C105.639 7.57939 104.34 8.54957 103.283 9.76547C102.227 10.9814 101.437 12.4147 100.968 13.969C100.512 15.501 100.373 17.1131 100.56 18.703C100.781 20.5914 101.469 22.3911 102.559 23.932C103.559 25.3902 104.882 26.587 106.419 27.4254C107.955 28.2639 109.664 28.7205 111.405 28.7583C113.147 28.7961 114.873 28.414 116.443 27.6429C118.013 26.8719 119.384 25.7335 120.444 24.32C121.324 23.1353 121.972 21.7877 122.352 20.3514H116.409ZM107.219 13.7014C107.771 12.9777 108.49 12.4065 109.313 12.0396C110.132 11.6569 111.03 11.486 111.929 11.5418C112.813 11.598 113.673 11.8559 114.447 12.2965L106.104 16.1099C106.297 15.2325 106.678 14.4098 107.219 13.7014Z" fill="#3772FF"/>
</svg>
