<svg width="187" height="46" viewBox="0 0 187 46" fill="none" xmlns="http://www.w3.org/2000/svg">
<path d="M59.0084 0H63.0041V34.4637C63.0088 34.9679 62.9163 35.4679 62.732 35.9339C62.5477 36.3999 62.2754 36.8222 61.9315 37.1757C61.6031 37.5424 61.2053 37.8337 60.7635 38.031C60.3216 38.2284 59.8453 38.3275 59.3648 38.3221H55.7221V36.1296C53.5086 37.5263 50.9742 38.2691 48.3888 38.2791C46.4659 38.3086 44.5578 37.9258 42.7819 37.1543C41.0061 36.3829 39.4004 35.2392 38.0638 33.7938C36.7021 32.3756 35.622 30.69 34.8857 28.8338C34.1494 26.9777 33.7714 24.9876 33.7734 22.9782C33.7743 20.973 34.1531 18.9875 34.8882 17.1354C35.6233 15.2832 36.7002 13.6007 38.0574 12.1837C39.4147 10.7668 41.0257 9.64333 42.7983 8.87748C44.571 8.11163 46.4707 7.71842 48.3888 7.7203C50.9666 7.72506 53.4971 8.44453 55.7221 9.80532V3.43921C55.7221 2.52769 56.0682 1.65346 56.6844 1.00859C57.3006 0.363712 58.1365 0.000949493 59.0084 0ZM55.7221 23.2075V22.7382C55.6978 21.4194 55.3357 20.1315 54.6735 19.0088C54.024 17.8952 53.115 16.972 52.0314 16.3255C50.9144 15.6707 49.6543 15.3289 48.3736 15.3333C47.0929 15.3377 45.835 15.6881 44.7221 16.3506C43.6152 17.0223 42.6951 17.9842 42.0526 19.1413C41.2374 20.5997 40.9078 22.2996 41.1156 23.9747C41.3233 25.6499 42.0566 27.2057 43.2006 28.3985C44.5572 29.8362 46.4045 30.6518 48.3362 30.6659C50.2679 30.68 52.1258 29.8915 53.5015 28.4738C54.1852 27.7921 54.7333 26.976 55.1144 26.0722C55.4954 25.1685 55.702 24.1949 55.7221 23.2075Z" fill="#FCF0E3"/>
<path d="M70.3743 12.2059C73.1191 9.3386 76.8391 7.7256 80.7193 7.72023C84.5995 7.71486 88.3236 9.31755 91.0756 12.1772C92.4641 13.5719 93.5636 15.25 94.3058 17.1075C95.0479 18.9649 95.417 20.9621 95.39 22.9749C95.4194 24.9889 95.054 26.988 94.3161 28.8487C93.5782 30.7095 92.4835 32.3925 91.0996 33.794C89.7407 35.2158 88.1272 36.3436 86.3511 37.1131C84.5751 37.8826 82.6715 38.2786 80.749 38.2786C78.8265 38.2786 76.9228 37.8826 75.1468 37.1131C73.3708 36.3436 71.7572 35.2158 70.3983 33.794C69.0137 32.393 67.9187 30.7101 67.1807 28.8492C66.4428 26.9884 66.0777 24.9891 66.1079 22.9749C66.0718 20.9695 66.432 18.978 67.1662 17.1249C67.9003 15.2718 68.9925 13.5972 70.3743 12.2059ZM75.5591 28.4239C76.236 29.1365 77.0414 29.7016 77.9288 30.0864C78.8161 30.4713 79.7676 30.6682 80.7283 30.6659C81.6889 30.6636 82.6396 30.462 83.5252 30.0728C84.4108 29.6837 85.2137 29.1147 85.8875 28.3988C86.5778 27.6937 87.1239 26.8494 87.4926 25.917C87.8614 24.9847 88.0451 23.9837 88.0326 22.9749C87.9913 20.9773 87.2032 19.0762 85.8372 17.6788C84.4713 16.2814 82.6361 15.4988 80.725 15.4988C78.8138 15.4988 76.9787 16.2814 75.6127 17.6788C74.2468 19.0762 73.4587 20.9773 73.4173 22.9749C73.4071 23.9881 73.5927 24.993 73.9631 25.9293C74.3335 26.8657 74.881 27.7142 75.5728 28.4239H75.5591Z" fill="#FCF0E3"/>
<path d="M127.653 19.8721C128.121 22.1743 128.061 24.5595 127.478 26.8329C126.949 29.0016 125.97 31.022 124.61 32.7512C123.25 34.4456 121.558 35.8151 119.648 36.7672C117.505 37.8574 115.136 38.3711 112.755 38.2617C110.373 38.1522 108.056 37.423 106.013 36.1403V42.1374C106.018 42.6417 105.926 43.142 105.742 43.6081C105.558 44.0741 105.285 44.4964 104.94 44.8493C104.605 45.221 104.198 45.5152 103.747 45.7133C103.297 45.9113 102.811 46.0087 102.322 45.9993H98.7207V7.6665H106.013V9.81601C107.767 8.6953 109.736 7.99289 111.78 7.75882C113.823 7.52475 115.891 7.76478 117.835 8.46182C120.305 9.27783 122.519 10.7725 124.247 12.7895C125.99 14.7736 127.169 17.2262 127.653 19.8721ZM108.148 28.4235C109.177 29.4914 110.486 30.2168 111.91 30.5084C113.333 30.7999 114.807 30.6446 116.146 30.0619C117.485 29.4792 118.629 28.4953 119.434 27.2341C120.239 25.9729 120.669 24.4908 120.669 22.9746C120.669 20.9413 119.897 18.9912 118.521 17.5535C117.146 16.1157 115.281 15.308 113.336 15.308C111.391 15.308 109.526 16.1157 108.151 17.5535C106.775 18.9912 106.003 20.9413 106.003 22.9746C105.991 23.987 106.175 24.9914 106.544 25.9277C106.912 26.8641 107.458 27.7129 108.148 28.4235Z" fill="#FCF0E3"/>
<path d="M179.433 27.0158H186.667C186.683 29.0363 186.184 31.0247 185.221 32.7765C184.275 34.5128 182.895 35.9469 181.228 36.925C179.56 37.9242 177.668 38.4457 175.746 38.4368C174.506 38.4417 173.275 38.2298 172.103 37.8099C169.967 37.0243 168.118 35.5629 166.812 33.6286C165.507 31.6943 164.809 29.3831 164.817 27.0158V0.147018H168.409C169.058 0.143695 169.697 0.324449 170.256 0.670064C170.813 1.01112 171.276 1.4959 171.603 2.07799C171.932 2.66411 172.104 3.33262 172.099 4.01254V7.92822H186.667V15.4766H172.099V27.7968C172.284 28.737 172.795 29.5723 173.535 30.1405C174.275 30.7087 175.19 30.9695 176.104 30.8722C177.017 30.775 177.863 30.3266 178.478 29.6141C179.094 28.9015 179.434 27.9756 179.433 27.0158Z" fill="#FCF0E3"/>
<path d="M21.9506 7.6665V9.81601C19.7257 8.45474 17.1951 7.73524 14.6172 7.73099C12.6975 7.69937 10.7918 8.07732 9.01653 8.84174C7.24128 9.60615 5.63377 10.741 4.29224 12.1769C2.90694 13.5728 1.81116 15.2517 1.07307 17.1093C0.334985 18.9669 -0.0296385 20.9634 0.00188251 22.9746C-0.0283849 24.9888 0.336726 26.9881 1.07466 28.8489C1.81259 30.7098 2.90767 32.3927 4.29224 33.7937C5.62858 35.2395 7.23428 36.3834 9.01015 37.1549C10.786 37.9263 12.6943 38.3089 14.6172 38.279C17.3163 38.278 19.9608 37.4835 22.2487 35.9862C22.5515 36.6476 23.0161 37.2136 23.5954 37.627C24.18 38.0568 24.8786 38.2848 25.5932 38.279H29.2531V7.6665H21.9506ZM17.2353 18.4391C17.4135 17.1458 18.4004 16.2896 19.4387 16.5619C20.477 16.8341 21.1727 18.0665 20.9945 19.3562C20.8163 20.6459 19.8294 21.5057 18.791 21.2335C17.7527 20.9612 17.0571 19.7288 17.2353 18.4391ZM13.0169 14.0792C13.949 13.42 15.2237 13.8571 15.8646 15.0536C16.5054 16.2502 16.2723 17.762 15.3403 18.4212C14.4082 19.0804 13.1368 18.6469 12.496 17.4467C11.8552 16.2466 12.0882 14.7599 13.0169 14.0792ZM8.2502 16.2287C9.18229 15.5695 10.4571 16.003 11.0979 17.2031C11.7387 18.4033 11.5057 19.9115 10.5736 20.5707C9.64148 21.2299 8.37013 20.7964 7.72932 19.5963C7.08851 18.3961 7.32153 16.9094 8.2502 16.243V16.2287ZM9.52839 25.425C8.99724 26.3923 7.73618 26.5714 6.71156 25.8262C5.68695 25.0811 5.28944 23.6767 5.82059 22.7274C6.35175 21.778 7.61281 21.581 8.63742 22.3261C9.66204 23.0713 10.063 24.472 9.52839 25.4393V25.425ZM20.9671 27.9327C19.6786 28.9645 17.787 27.7751 16.2244 28.4701C14.6412 29.1042 14.0655 31.3361 12.4549 31.526C10.8443 31.7159 9.61064 29.8852 11.0842 26.5535C12.0437 24.3108 11.7764 22.3906 13.548 21.5881C15.354 20.8716 16.4403 22.4587 18.6642 23.3794C21.93 24.7049 22.2555 26.9189 20.9671 27.9471V27.9327Z" fill="#FCF0E3"/>
<path d="M152.447 27.2449C151.703 28.5761 150.577 29.6289 149.229 30.2542C147.885 30.9 146.383 31.094 144.929 30.8095C143.509 30.5517 142.191 29.8684 141.135 28.8427L160.349 19.847L160.123 18.8081C160.098 18.615 160.053 18.4253 159.989 18.242C159.874 17.805 159.727 17.3775 159.551 16.9631C158.959 15.5523 158.149 14.2534 157.152 13.119C155.144 10.6457 152.404 8.94266 149.366 8.27908C146.306 7.54783 143.1 7.89418 140.248 9.26427C138.343 10.1466 136.642 11.4454 135.258 13.0732C133.874 14.7009 132.84 16.6198 132.225 18.7006C131.629 20.7515 131.447 22.9097 131.691 25.038C131.98 27.5662 132.881 29.9754 134.309 32.0383C135.619 33.9904 137.351 35.5926 139.364 36.715C141.376 37.8375 143.614 38.4488 145.894 38.4994C148.175 38.55 150.435 38.0384 152.491 37.0062C154.548 35.974 156.343 34.45 157.731 32.5577C158.884 30.9717 159.732 29.1676 160.229 27.2449H152.447ZM140.412 18.3423C141.134 17.3735 142.077 16.6087 143.154 16.1176C144.226 15.6053 145.403 15.3764 146.58 15.4513C147.738 15.5265 148.864 15.8717 149.877 16.4615L138.952 21.5666C139.204 20.392 139.703 19.2907 140.412 18.3423Z" fill="#FCF0E3"/>
</svg>
